<svg xmlns="http://www.w3.org/2000/svg" width="24" height="24" viewBox="0 0 24 24" fill="#000000"><path d="M20.19 2H3.81C2.81 2 2 2.81 2 3.81v16.38c0 1 .81 1.81 1.81 1.81h16.38c1 0 1.81-.81 1.81-1.81V3.81c0-1-.81-1.81-1.81-1.81zm-12 17.27c0 .29-.236.526-.527.526h-2.24a.526.526 0 0 1-.527-.527V9.875c0-.291.235-.527.526-.527h2.241c.291 0 .527.236.527.526v9.395zM6.542 8.461a2.13 2.13 0 1 1 0-4.258 2.13 2.13 0 0 1 0 4.258zM19.9 19.312a.484.484 0 0 1-.484.484h-2.405a.484.484 0 0 1-.484-.484v-4.407c0-.657.193-2.88-1.718-2.88-1.482 0-1.783 1.521-1.843 2.204v5.083a.484.484 0 0 1-.484.484h-2.326a.484.484 0 0 1-.484-.484v-9.48c0-.267.216-.484.484-.484h2.326c.267 0 .484.217.484.484v.82c.55-.825 1.366-1.462 3.105-1.462 3.851 0 3.829 3.598 3.829 5.575v4.547z" fill="#000000"/></svg>