<svg xmlns="http://www.w3.org/2000/svg" width="24" height="24" viewBox="0 0 24 24" fill="none"><path fill-rule="evenodd" clip-rule="evenodd" d="M7.958 2h8.084C19.327 2 22 4.806 22 8.256v8.488C22 20.194 19.327 23 16.042 23H7.958C4.673 23 2 20.194 2 16.744V8.256C2 4.806 4.673 2 7.958 2zm8.025 18.9c2.219 0 4.017-1.888 4.017-4.217v-8.64c0-2.329-1.798-4.217-4.017-4.217H7.756c-2.219 0-4.017 1.888-4.017 4.217v8.64c0 2.329 1.798 4.217 4.017 4.217h8.227z" fill="#000000"/><path fill-rule="evenodd" clip-rule="evenodd" d="M6 12.5C6 9.467 8.467 7 11.5 7S17 9.467 17 12.5 14.533 18 11.5 18A5.506 5.506 0 0 1 6 12.5zm1.833-.083a3.583 3.583 0 1 0 7.167 0 3.583 3.583 0 0 0-7.167 0z" fill="#000000"/><circle cx="16.5" cy="6.5" r="1.5" fill="#000000"/></svg>